<svg xmlns="http://www.w3.org/2000/svg" xmlns:xlink="http://www.w3.org/1999/xlink" viewBox="0 0 99.69 99.69"><defs><style>.cls-1{fill:url(#linear-gradient);}.cls-2{fill:url(#linear-gradient-2);}.cls-3{fill:url(#linear-gradient-3);}</style><linearGradient id="linear-gradient" x1="49.84" y1="99.69" x2="49.84" gradientUnits="userSpaceOnUse"><stop offset="0" stop-color="#4165b0"/><stop offset="0.29" stop-color="#3a5ba0"/><stop offset="0.85" stop-color="#284077"/><stop offset="1" stop-color="#23386b"/></linearGradient><linearGradient id="linear-gradient-2" x1="49.84" y1="6.68" x2="49.84" y2="93.01" gradientUnits="userSpaceOnUse"><stop offset="0" stop-color="#fff"/><stop offset="0.3" stop-color="#eff0f0"/><stop offset="0.87" stop-color="#c6c8ca"/><stop offset="1" stop-color="#bcbec0"/></linearGradient><linearGradient id="linear-gradient-3" x1="52.6" y1="26.64" x2="52.6" y2="73.05" xlink:href="#linear-gradient"/></defs><title>reset</title><g id="Layer_2" data-name="Layer 2"><g id="Layer_1-2" data-name="Layer 1"><circle class="cls-1" cx="49.84" cy="49.84" r="49.84"/><circle class="cls-2" cx="49.84" cy="49.84" r="43.17"/><path class="cls-3" d="M64,45.89c-1.71-5.43-5.07-9.11-10.4-10.78A15.42,15.42,0,1,0,46.12,65a14.87,14.87,0,0,0,12.5-3.14c.78-.62,1.07-.45,1.58.23,1.17,1.56,2.39,3.08,3.63,4.58.41.51.36.75-.14,1.16a23.22,23.22,0,1,1,8-22.79c.18.81.49.87,1.14.86,1.8,0,3.59,0,5.39,0,.42,0,.91,0,1.11.46s-.15.74-.39,1q-5,6.09-9.9,12.16c-.86,1-1.52,1-2.38,0-3.31-4-6.59-8.11-9.89-12.17-.24-.3-.58-.6-.41-1s.68-.47,1.1-.48Z"/></g></g></svg>